<svg xmlns="http://www.w3.org/2000/svg" xmlns:xlink="http://www.w3.org/1999/xlink" version="1.1" width="256" height="256" viewBox="0 0 256 256" xml:space="preserve">

<defs>
</defs>
<g style="stroke: none; stroke-width: 0; stroke-dasharray: none; stroke-linecap: butt; stroke-linejoin: miter; stroke-miterlimit: 10; fill: none; fill-rule: nonzero; opacity: 1;" transform="translate(4.681712062256807 16.799377431906592) scale(2.73 2.73)" >
	<path d="M 87.116 83.298 h -22.91 c -0.587 0 -1.063 -0.476 -1.063 -1.063 v -2.596 c 0 -0.587 0.476 -1.063 1.063 -1.063 h 22.91 c 0.587 0 1.063 0.476 1.063 1.063 v 2.596 C 88.179 82.822 87.703 83.298 87.116 83.298 z" style="stroke: none; stroke-width: 1; stroke-dasharray: none; stroke-linecap: butt; stroke-linejoin: miter; stroke-miterlimit: 10; fill: rgb(220,154,0); fill-rule: nonzero; opacity: 1;" transform=" matrix(1 0 0 1 0 0) " stroke-linecap="round" />
	<path d="M 69.403 83.298 h -5.196 c -0.587 0 -1.063 -0.476 -1.063 -1.063 v -2.596 c 0 -0.587 0.476 -1.063 1.063 -1.063 h 5.196 V 83.298 z" style="stroke: none; stroke-width: 1; stroke-dasharray: none; stroke-linecap: butt; stroke-linejoin: miter; stroke-miterlimit: 10; fill: rgb(255,179,0); fill-rule: nonzero; opacity: 1;" transform=" matrix(1 0 0 1 0 0) " stroke-linecap="round" />
	<rect x="75.66" y="78.58" rx="0" ry="0" width="6.26" height="4.72" style="stroke: none; stroke-width: 1; stroke-dasharray: none; stroke-linecap: butt; stroke-linejoin: miter; stroke-miterlimit: 10; fill: rgb(255,179,0); fill-rule: nonzero; opacity: 1;" transform=" matrix(1 0 0 1 0 0) "/>
	<path d="M 87.116 83.298 h -22.91 c -0.587 0 -1.063 -0.476 -1.063 -1.063 V 81.55 h 25.035 v 0.685 C 88.179 82.822 87.703 83.298 87.116 83.298 z" style="stroke: none; stroke-width: 1; stroke-dasharray: none; stroke-linecap: butt; stroke-linejoin: miter; stroke-miterlimit: 10; fill: rgb(204,143,0); fill-rule: nonzero; opacity: 1;" transform=" matrix(1 0 0 1 0 0) " stroke-linecap="round" />
	<path d="M 69.403 83.298 h -5.196 c -0.587 0 -1.063 -0.476 -1.063 -1.063 V 81.55 h 6.259 V 83.298 z" style="stroke: none; stroke-width: 1; stroke-dasharray: none; stroke-linecap: butt; stroke-linejoin: miter; stroke-miterlimit: 10; fill: rgb(234,165,0); fill-rule: nonzero; opacity: 1;" transform=" matrix(1 0 0 1 0 0) " stroke-linecap="round" />
	<rect x="75.66" y="81.55" rx="0" ry="0" width="6.26" height="1.75" style="stroke: none; stroke-width: 1; stroke-dasharray: none; stroke-linecap: butt; stroke-linejoin: miter; stroke-miterlimit: 10; fill: rgb(234,165,0); fill-rule: nonzero; opacity: 1;" transform=" matrix(1 0 0 1 0 0) "/>
	<path d="M 84.902 78.576 h -22.91 c -0.587 0 -1.063 -0.476 -1.063 -1.063 v -2.596 c 0 -0.587 0.476 -1.063 1.063 -1.063 h 22.91 c 0.587 0 1.063 0.476 1.063 1.063 v 2.596 C 85.965 78.101 85.489 78.576 84.902 78.576 z" style="stroke: none; stroke-width: 1; stroke-dasharray: none; stroke-linecap: butt; stroke-linejoin: miter; stroke-miterlimit: 10; fill: rgb(220,154,0); fill-rule: nonzero; opacity: 1;" transform=" matrix(1 0 0 1 0 0) " stroke-linecap="round" />
	<path d="M 67.188 78.576 h -5.196 c -0.587 0 -1.063 -0.476 -1.063 -1.063 v -2.596 c 0 -0.587 0.476 -1.063 1.063 -1.063 h 5.196 V 78.576 z" style="stroke: none; stroke-width: 1; stroke-dasharray: none; stroke-linecap: butt; stroke-linejoin: miter; stroke-miterlimit: 10; fill: rgb(255,179,0); fill-rule: nonzero; opacity: 1;" transform=" matrix(1 0 0 1 0 0) " stroke-linecap="round" />
	<rect x="73.45" y="73.86" rx="0" ry="0" width="6.26" height="4.72" style="stroke: none; stroke-width: 1; stroke-dasharray: none; stroke-linecap: butt; stroke-linejoin: miter; stroke-miterlimit: 10; fill: rgb(255,179,0); fill-rule: nonzero; opacity: 1;" transform=" matrix(1 0 0 1 0 0) "/>
	<path d="M 84.902 78.576 h -22.91 c -0.587 0 -1.063 -0.476 -1.063 -1.063 v -0.685 h 25.035 v 0.685 C 85.965 78.101 85.489 78.576 84.902 78.576 z" style="stroke: none; stroke-width: 1; stroke-dasharray: none; stroke-linecap: butt; stroke-linejoin: miter; stroke-miterlimit: 10; fill: rgb(204,143,0); fill-rule: nonzero; opacity: 1;" transform=" matrix(1 0 0 1 0 0) " stroke-linecap="round" />
	<path d="M 67.188 78.576 h -5.196 c -0.587 0 -1.063 -0.476 -1.063 -1.063 v -0.685 h 6.259 V 78.576 z" style="stroke: none; stroke-width: 1; stroke-dasharray: none; stroke-linecap: butt; stroke-linejoin: miter; stroke-miterlimit: 10; fill: rgb(234,165,0); fill-rule: nonzero; opacity: 1;" transform=" matrix(1 0 0 1 0 0) " stroke-linecap="round" />
	<rect x="73.45" y="76.83" rx="0" ry="0" width="6.26" height="1.75" style="stroke: none; stroke-width: 1; stroke-dasharray: none; stroke-linecap: butt; stroke-linejoin: miter; stroke-miterlimit: 10; fill: rgb(234,165,0); fill-rule: nonzero; opacity: 1;" transform=" matrix(1 0 0 1 0 0) "/>
	<path d="M 87.116 73.855 h -22.91 c -0.587 0 -1.063 -0.476 -1.063 -1.063 v -2.596 c 0 -0.587 0.476 -1.063 1.063 -1.063 h 22.91 c 0.587 0 1.063 0.476 1.063 1.063 v 2.596 C 88.179 73.379 87.703 73.855 87.116 73.855 z" style="stroke: none; stroke-width: 1; stroke-dasharray: none; stroke-linecap: butt; stroke-linejoin: miter; stroke-miterlimit: 10; fill: rgb(220,154,0); fill-rule: nonzero; opacity: 1;" transform=" matrix(1 0 0 1 0 0) " stroke-linecap="round" />
	<path d="M 69.403 73.855 h -5.196 c -0.587 0 -1.063 -0.476 -1.063 -1.063 v -2.596 c 0 -0.587 0.476 -1.063 1.063 -1.063 h 5.196 V 73.855 z" style="stroke: none; stroke-width: 1; stroke-dasharray: none; stroke-linecap: butt; stroke-linejoin: miter; stroke-miterlimit: 10; fill: rgb(255,179,0); fill-rule: nonzero; opacity: 1;" transform=" matrix(1 0 0 1 0 0) " stroke-linecap="round" />
	<rect x="75.66" y="69.13" rx="0" ry="0" width="6.26" height="4.72" style="stroke: none; stroke-width: 1; stroke-dasharray: none; stroke-linecap: butt; stroke-linejoin: miter; stroke-miterlimit: 10; fill: rgb(255,179,0); fill-rule: nonzero; opacity: 1;" transform=" matrix(1 0 0 1 0 0) "/>
	<path d="M 87.116 73.855 h -22.91 c -0.587 0 -1.063 -0.476 -1.063 -1.063 v -0.685 h 25.035 v 0.685 C 88.179 73.379 87.703 73.855 87.116 73.855 z" style="stroke: none; stroke-width: 1; stroke-dasharray: none; stroke-linecap: butt; stroke-linejoin: miter; stroke-miterlimit: 10; fill: rgb(204,143,0); fill-rule: nonzero; opacity: 1;" transform=" matrix(1 0 0 1 0 0) " stroke-linecap="round" />
	<path d="M 69.403 73.855 h -5.196 c -0.587 0 -1.063 -0.476 -1.063 -1.063 v -0.685 h 6.259 V 73.855 z" style="stroke: none; stroke-width: 1; stroke-dasharray: none; stroke-linecap: butt; stroke-linejoin: miter; stroke-miterlimit: 10; fill: rgb(234,165,0); fill-rule: nonzero; opacity: 1;" transform=" matrix(1 0 0 1 0 0) " stroke-linecap="round" />
	<rect x="75.66" y="72.11" rx="0" ry="0" width="6.26" height="1.75" style="stroke: none; stroke-width: 1; stroke-dasharray: none; stroke-linecap: butt; stroke-linejoin: miter; stroke-miterlimit: 10; fill: rgb(234,165,0); fill-rule: nonzero; opacity: 1;" transform=" matrix(1 0 0 1 0 0) "/>
	<path d="M 86.201 69.133 h -22.91 c -0.587 0 -1.063 -0.476 -1.063 -1.063 v -2.596 c 0 -0.587 0.476 -1.063 1.063 -1.063 h 22.91 c 0.587 0 1.063 0.476 1.063 1.063 v 2.596 C 87.264 68.657 86.788 69.133 86.201 69.133 z" style="stroke: none; stroke-width: 1; stroke-dasharray: none; stroke-linecap: butt; stroke-linejoin: miter; stroke-miterlimit: 10; fill: rgb(220,154,0); fill-rule: nonzero; opacity: 1;" transform=" matrix(1 0 0 1 0 0) " stroke-linecap="round" />
	<path d="M 68.488 69.133 h -5.196 c -0.587 0 -1.063 -0.476 -1.063 -1.063 v -2.596 c 0 -0.587 0.476 -1.063 1.063 -1.063 h 5.196 V 69.133 z" style="stroke: none; stroke-width: 1; stroke-dasharray: none; stroke-linecap: butt; stroke-linejoin: miter; stroke-miterlimit: 10; fill: rgb(255,179,0); fill-rule: nonzero; opacity: 1;" transform=" matrix(1 0 0 1 0 0) " stroke-linecap="round" />
	<rect x="74.75" y="64.41" rx="0" ry="0" width="6.26" height="4.72" style="stroke: none; stroke-width: 1; stroke-dasharray: none; stroke-linecap: butt; stroke-linejoin: miter; stroke-miterlimit: 10; fill: rgb(255,179,0); fill-rule: nonzero; opacity: 1;" transform=" matrix(1 0 0 1 0 0) "/>
	<path d="M 86.201 69.133 h -22.91 c -0.587 0 -1.063 -0.476 -1.063 -1.063 v -0.685 h 25.035 v 0.685 C 87.264 68.657 86.788 69.133 86.201 69.133 z" style="stroke: none; stroke-width: 1; stroke-dasharray: none; stroke-linecap: butt; stroke-linejoin: miter; stroke-miterlimit: 10; fill: rgb(204,143,0); fill-rule: nonzero; opacity: 1;" transform=" matrix(1 0 0 1 0 0) " stroke-linecap="round" />
	<path d="M 68.488 69.133 h -5.196 c -0.587 0 -1.063 -0.476 -1.063 -1.063 v -0.685 h 6.259 V 69.133 z" style="stroke: none; stroke-width: 1; stroke-dasharray: none; stroke-linecap: butt; stroke-linejoin: miter; stroke-miterlimit: 10; fill: rgb(234,165,0); fill-rule: nonzero; opacity: 1;" transform=" matrix(1 0 0 1 0 0) " stroke-linecap="round" />
	<rect x="74.75" y="67.39" rx="0" ry="0" width="6.26" height="1.75" style="stroke: none; stroke-width: 1; stroke-dasharray: none; stroke-linecap: butt; stroke-linejoin: miter; stroke-miterlimit: 10; fill: rgb(234,165,0); fill-rule: nonzero; opacity: 1;" transform=" matrix(1 0 0 1 0 0) "/>
	<path d="M 88.527 64.412 h -22.91 c -0.587 0 -1.063 -0.476 -1.063 -1.063 v -2.596 c 0 -0.587 0.476 -1.063 1.063 -1.063 h 22.91 c 0.587 0 1.063 0.476 1.063 1.063 v 2.596 C 89.59 63.936 89.114 64.412 88.527 64.412 z" style="stroke: none; stroke-width: 1; stroke-dasharray: none; stroke-linecap: butt; stroke-linejoin: miter; stroke-miterlimit: 10; fill: rgb(220,154,0); fill-rule: nonzero; opacity: 1;" transform=" matrix(1 0 0 1 0 0) " stroke-linecap="round" />
	<path d="M 70.813 64.412 h -5.196 c -0.587 0 -1.063 -0.476 -1.063 -1.063 v -2.596 c 0 -0.587 0.476 -1.063 1.063 -1.063 h 5.196 V 64.412 z" style="stroke: none; stroke-width: 1; stroke-dasharray: none; stroke-linecap: butt; stroke-linejoin: miter; stroke-miterlimit: 10; fill: rgb(255,179,0); fill-rule: nonzero; opacity: 1;" transform=" matrix(1 0 0 1 0 0) " stroke-linecap="round" />
	<rect x="77.07" y="59.69" rx="0" ry="0" width="6.26" height="4.72" style="stroke: none; stroke-width: 1; stroke-dasharray: none; stroke-linecap: butt; stroke-linejoin: miter; stroke-miterlimit: 10; fill: rgb(255,179,0); fill-rule: nonzero; opacity: 1;" transform=" matrix(1 0 0 1 0 0) "/>
	<path d="M 88.527 64.412 h -22.91 c -0.587 0 -1.063 -0.476 -1.063 -1.063 v -0.685 H 89.59 v 0.685 C 89.59 63.936 89.114 64.412 88.527 64.412 z" style="stroke: none; stroke-width: 1; stroke-dasharray: none; stroke-linecap: butt; stroke-linejoin: miter; stroke-miterlimit: 10; fill: rgb(204,143,0); fill-rule: nonzero; opacity: 1;" transform=" matrix(1 0 0 1 0 0) " stroke-linecap="round" />
	<path d="M 70.813 64.412 h -5.196 c -0.587 0 -1.063 -0.476 -1.063 -1.063 v -0.685 h 6.259 V 64.412 z" style="stroke: none; stroke-width: 1; stroke-dasharray: none; stroke-linecap: butt; stroke-linejoin: miter; stroke-miterlimit: 10; fill: rgb(234,165,0); fill-rule: nonzero; opacity: 1;" transform=" matrix(1 0 0 1 0 0) " stroke-linecap="round" />
	<rect x="77.07" y="62.66" rx="0" ry="0" width="6.26" height="1.75" style="stroke: none; stroke-width: 1; stroke-dasharray: none; stroke-linecap: butt; stroke-linejoin: miter; stroke-miterlimit: 10; fill: rgb(234,165,0); fill-rule: nonzero; opacity: 1;" transform=" matrix(1 0 0 1 0 0) "/>
	<path d="M 87.432 59.69 h -22.91 c -0.587 0 -1.063 -0.476 -1.063 -1.063 v -2.596 c 0 -0.587 0.476 -1.063 1.063 -1.063 h 22.91 c 0.587 0 1.063 0.476 1.063 1.063 v 2.596 C 88.495 59.214 88.019 59.69 87.432 59.69 z" style="stroke: none; stroke-width: 1; stroke-dasharray: none; stroke-linecap: butt; stroke-linejoin: miter; stroke-miterlimit: 10; fill: rgb(220,154,0); fill-rule: nonzero; opacity: 1;" transform=" matrix(1 0 0 1 0 0) " stroke-linecap="round" />
	<path d="M 69.719 59.69 h -5.196 c -0.587 0 -1.063 -0.476 -1.063 -1.063 v -2.596 c 0 -0.587 0.476 -1.063 1.063 -1.063 h 5.196 V 59.69 z" style="stroke: none; stroke-width: 1; stroke-dasharray: none; stroke-linecap: butt; stroke-linejoin: miter; stroke-miterlimit: 10; fill: rgb(255,179,0); fill-rule: nonzero; opacity: 1;" transform=" matrix(1 0 0 1 0 0) " stroke-linecap="round" />
	<rect x="75.98" y="54.97" rx="0" ry="0" width="6.26" height="4.72" style="stroke: none; stroke-width: 1; stroke-dasharray: none; stroke-linecap: butt; stroke-linejoin: miter; stroke-miterlimit: 10; fill: rgb(255,179,0); fill-rule: nonzero; opacity: 1;" transform=" matrix(1 0 0 1 0 0) "/>
	<path d="M 87.432 59.69 h -22.91 c -0.587 0 -1.063 -0.476 -1.063 -1.063 v -0.685 h 25.035 v 0.685 C 88.495 59.214 88.019 59.69 87.432 59.69 z" style="stroke: none; stroke-width: 1; stroke-dasharray: none; stroke-linecap: butt; stroke-linejoin: miter; stroke-miterlimit: 10; fill: rgb(204,143,0); fill-rule: nonzero; opacity: 1;" transform=" matrix(1 0 0 1 0 0) " stroke-linecap="round" />
	<path d="M 69.719 59.69 h -5.196 c -0.587 0 -1.063 -0.476 -1.063 -1.063 v -0.685 h 6.259 V 59.69 z" style="stroke: none; stroke-width: 1; stroke-dasharray: none; stroke-linecap: butt; stroke-linejoin: miter; stroke-miterlimit: 10; fill: rgb(234,165,0); fill-rule: nonzero; opacity: 1;" transform=" matrix(1 0 0 1 0 0) " stroke-linecap="round" />
	<rect x="75.98" y="57.94" rx="0" ry="0" width="6.26" height="1.75" style="stroke: none; stroke-width: 1; stroke-dasharray: none; stroke-linecap: butt; stroke-linejoin: miter; stroke-miterlimit: 10; fill: rgb(234,165,0); fill-rule: nonzero; opacity: 1;" transform=" matrix(1 0 0 1 0 0) "/>
	<path d="M 88.937 54.968 h -22.91 c -0.587 0 -1.063 -0.476 -1.063 -1.063 V 51.31 c 0 -0.587 0.476 -1.063 1.063 -1.063 h 22.91 c 0.587 0 1.063 0.476 1.063 1.063 v 2.596 C 90 54.492 89.524 54.968 88.937 54.968 z" style="stroke: none; stroke-width: 1; stroke-dasharray: none; stroke-linecap: butt; stroke-linejoin: miter; stroke-miterlimit: 10; fill: rgb(220,154,0); fill-rule: nonzero; opacity: 1;" transform=" matrix(1 0 0 1 0 0) " stroke-linecap="round" />
	<path d="M 71.223 54.968 h -5.196 c -0.587 0 -1.063 -0.476 -1.063 -1.063 V 51.31 c 0 -0.587 0.476 -1.063 1.063 -1.063 h 5.196 V 54.968 z" style="stroke: none; stroke-width: 1; stroke-dasharray: none; stroke-linecap: butt; stroke-linejoin: miter; stroke-miterlimit: 10; fill: rgb(255,179,0); fill-rule: nonzero; opacity: 1;" transform=" matrix(1 0 0 1 0 0) " stroke-linecap="round" />
	<rect x="77.48" y="50.25" rx="0" ry="0" width="6.26" height="4.72" style="stroke: none; stroke-width: 1; stroke-dasharray: none; stroke-linecap: butt; stroke-linejoin: miter; stroke-miterlimit: 10; fill: rgb(255,179,0); fill-rule: nonzero; opacity: 1;" transform=" matrix(1 0 0 1 0 0) "/>
	<path d="M 88.937 54.968 h -22.91 c -0.587 0 -1.063 -0.476 -1.063 -1.063 V 53.22 H 90 v 0.685 C 90 54.492 89.524 54.968 88.937 54.968 z" style="stroke: none; stroke-width: 1; stroke-dasharray: none; stroke-linecap: butt; stroke-linejoin: miter; stroke-miterlimit: 10; fill: rgb(204,143,0); fill-rule: nonzero; opacity: 1;" transform=" matrix(1 0 0 1 0 0) " stroke-linecap="round" />
	<path d="M 71.223 54.968 h -5.196 c -0.587 0 -1.063 -0.476 -1.063 -1.063 V 53.22 h 6.259 V 54.968 z" style="stroke: none; stroke-width: 1; stroke-dasharray: none; stroke-linecap: butt; stroke-linejoin: miter; stroke-miterlimit: 10; fill: rgb(234,165,0); fill-rule: nonzero; opacity: 1;" transform=" matrix(1 0 0 1 0 0) " stroke-linecap="round" />
	<rect x="77.48" y="53.22" rx="0" ry="0" width="6.26" height="1.75" style="stroke: none; stroke-width: 1; stroke-dasharray: none; stroke-linecap: butt; stroke-linejoin: miter; stroke-miterlimit: 10; fill: rgb(234,165,0); fill-rule: nonzero; opacity: 1;" transform=" matrix(1 0 0 1 0 0) "/>
	<path d="M 87.432 50.247 h -22.91 c -0.587 0 -1.063 -0.476 -1.063 -1.063 v -2.596 c 0 -0.587 0.476 -1.063 1.063 -1.063 h 22.91 c 0.587 0 1.063 0.476 1.063 1.063 v 2.596 C 88.495 49.771 88.019 50.247 87.432 50.247 z" style="stroke: none; stroke-width: 1; stroke-dasharray: none; stroke-linecap: butt; stroke-linejoin: miter; stroke-miterlimit: 10; fill: rgb(220,154,0); fill-rule: nonzero; opacity: 1;" transform=" matrix(1 0 0 1 0 0) " stroke-linecap="round" />
	<path d="M 69.719 50.247 h -5.196 c -0.587 0 -1.063 -0.476 -1.063 -1.063 v -2.596 c 0 -0.587 0.476 -1.063 1.063 -1.063 h 5.196 V 50.247 z" style="stroke: none; stroke-width: 1; stroke-dasharray: none; stroke-linecap: butt; stroke-linejoin: miter; stroke-miterlimit: 10; fill: rgb(255,179,0); fill-rule: nonzero; opacity: 1;" transform=" matrix(1 0 0 1 0 0) " stroke-linecap="round" />
	<rect x="75.98" y="45.52" rx="0" ry="0" width="6.26" height="4.72" style="stroke: none; stroke-width: 1; stroke-dasharray: none; stroke-linecap: butt; stroke-linejoin: miter; stroke-miterlimit: 10; fill: rgb(255,179,0); fill-rule: nonzero; opacity: 1;" transform=" matrix(1 0 0 1 0 0) "/>
	<path d="M 87.432 50.247 h -22.91 c -0.587 0 -1.063 -0.476 -1.063 -1.063 v -0.685 h 25.035 v 0.685 C 88.495 49.771 88.019 50.247 87.432 50.247 z" style="stroke: none; stroke-width: 1; stroke-dasharray: none; stroke-linecap: butt; stroke-linejoin: miter; stroke-miterlimit: 10; fill: rgb(204,143,0); fill-rule: nonzero; opacity: 1;" transform=" matrix(1 0 0 1 0 0) " stroke-linecap="round" />
	<path d="M 69.719 50.247 h -5.196 c -0.587 0 -1.063 -0.476 -1.063 -1.063 v -0.685 h 6.259 V 50.247 z" style="stroke: none; stroke-width: 1; stroke-dasharray: none; stroke-linecap: butt; stroke-linejoin: miter; stroke-miterlimit: 10; fill: rgb(234,165,0); fill-rule: nonzero; opacity: 1;" transform=" matrix(1 0 0 1 0 0) " stroke-linecap="round" />
	<rect x="75.98" y="48.5" rx="0" ry="0" width="6.26" height="1.75" style="stroke: none; stroke-width: 1; stroke-dasharray: none; stroke-linecap: butt; stroke-linejoin: miter; stroke-miterlimit: 10; fill: rgb(234,165,0); fill-rule: nonzero; opacity: 1;" transform=" matrix(1 0 0 1 0 0) "/>
	<path d="M 29.395 83.298 h 31.211 c 8.492 -1.38 14.154 -5.225 14.154 -15.936 c 0 -13.421 -8.885 -32.675 -21.093 -39.288 l 5.965 -20.243 c -9.419 -4.62 -18.429 6.893 -29.263 0 l 5.965 20.243 c -12.208 6.613 -21.093 25.867 -21.093 39.288 C 15.241 78.073 20.903 81.918 29.395 83.298 z" style="stroke: none; stroke-width: 1; stroke-dasharray: none; stroke-linecap: butt; stroke-linejoin: miter; stroke-miterlimit: 10; fill: rgb(52,57,54); fill-rule: nonzero; opacity: 1;" transform=" matrix(1 0 0 1 0 0) " stroke-linecap="round" />
	<path d="M 60.605 83.298 c 8.492 -1.38 14.154 -5.225 14.154 -15.936 c 0 -13.421 -8.885 -32.675 -21.093 -39.288 l 5.965 -20.243 c -2.201 -1.08 -4.38 -1.273 -6.565 -1.031 c 0.12 8.068 -1.036 15.363 -3.964 21.585 c 12.208 6.399 19.093 23.033 19.093 36.021 c 0 15.906 -13.324 16.171 -29.759 16.171 c -7.224 0 -13.845 -0.052 -19 -1.46 c 2.467 2.295 5.915 3.52 10.011 4.182 H 60.605 z" style="stroke: none; stroke-width: 1; stroke-dasharray: none; stroke-linecap: butt; stroke-linejoin: miter; stroke-miterlimit: 10; fill: rgb(46,50,47); fill-rule: nonzero; opacity: 1;" transform=" matrix(1 0 0 1 0 0) " stroke-linecap="round" />
	<path d="M 32.008 50.247 h -1.505 c 0.587 0 1.063 -0.476 1.063 -1.063 v -0.685 v -1.91 c 0 -0.587 -0.476 -1.063 -1.063 -1.063 h -5.196 h -6.259 h -6.259 H 7.593 c -0.587 0 -1.063 0.476 -1.063 1.063 v 1.91 v 0.685 c 0 0.587 0.476 1.063 1.063 1.063 h 1.505 c -0.587 0 -1.063 0.476 -1.063 1.063 v 1.91 v 0.685 c 0 0.587 0.476 1.063 1.063 1.063 H 7.593 c -0.587 0 -1.063 0.476 -1.063 1.063 v 1.91 v 0.685 c 0 0.587 0.476 1.063 1.063 1.063 h 1.094 c -0.587 0 -1.063 0.476 -1.063 1.063 v 1.91 v 0.685 c 0 0.587 0.476 1.063 1.063 1.063 H 6.362 c -0.587 0 -1.063 0.476 -1.063 1.063 v 1.91 v 0.685 c 0 0.587 0.476 1.063 1.063 1.063 h 0.915 c -0.587 0 -1.063 0.476 -1.063 1.063 v 1.91 v 0.685 c 0 0.587 0.476 1.063 1.063 1.063 H 5.063 C 4.476 73.855 4 74.331 4 74.918 v 1.91 v 0.685 c 0 0.587 0.476 1.063 1.063 1.063 h 2.215 c -0.587 0 -1.063 0.476 -1.063 1.063 v 1.91 v 0.685 c 0 0.587 0.476 1.063 1.063 1.063 h 5.196 h 6.259 h 6.259 h 5.196 c 0.587 0 1.063 -0.476 1.063 -1.063 V 81.55 v -1.91 c 0 -0.587 -0.476 -1.063 -1.063 -1.063 h -2.214 c 0.587 0 1.063 -0.476 1.063 -1.063 v -0.685 v -1.91 c 0 -0.587 -0.476 -1.063 -1.063 -1.063 h 2.214 c 0.587 0 1.063 -0.476 1.063 -1.063 v -0.685 v -1.91 c 0 -0.587 -0.476 -1.063 -1.063 -1.063 h -0.915 c 0.587 0 1.063 -0.476 1.063 -1.063 v -0.685 v -1.91 c 0 -0.587 -0.476 -1.063 -1.063 -1.063 h 2.325 c 0.587 0 1.063 -0.476 1.063 -1.063 v -0.685 v -1.91 c 0 -0.587 -0.476 -1.063 -1.063 -1.063 h -1.094 c 0.587 0 1.063 -0.476 1.063 -1.063 v -0.685 v -1.91 c 0 -0.587 -0.476 -1.063 -1.063 -1.063 h 1.505 c 0.587 0 1.063 -0.476 1.063 -1.063 V 53.22 v -1.91 C 33.071 50.723 32.595 50.247 32.008 50.247 z" style="stroke: none; stroke-width: 1; stroke-dasharray: none; stroke-linecap: butt; stroke-linejoin: miter; stroke-miterlimit: 10; fill: rgb(46,50,47); fill-rule: nonzero; opacity: 1;" transform=" matrix(1 0 0 1 0 0) " stroke-linecap="round" />
	<path d="M 26.187 83.298 H 3.277 c -0.587 0 -1.063 -0.476 -1.063 -1.063 v -2.596 c 0 -0.587 0.476 -1.063 1.063 -1.063 h 22.91 c 0.587 0 1.063 0.476 1.063 1.063 v 2.596 C 27.25 82.822 26.774 83.298 26.187 83.298 z" style="stroke: none; stroke-width: 1; stroke-dasharray: none; stroke-linecap: butt; stroke-linejoin: miter; stroke-miterlimit: 10; fill: rgb(220,154,0); fill-rule: nonzero; opacity: 1;" transform=" matrix(1 0 0 1 0 0) " stroke-linecap="round" />
	<path d="M 8.473 83.298 H 3.277 c -0.587 0 -1.063 -0.476 -1.063 -1.063 v -2.596 c 0 -0.587 0.476 -1.063 1.063 -1.063 h 5.196 V 83.298 z" style="stroke: none; stroke-width: 1; stroke-dasharray: none; stroke-linecap: butt; stroke-linejoin: miter; stroke-miterlimit: 10; fill: rgb(255,179,0); fill-rule: nonzero; opacity: 1;" transform=" matrix(1 0 0 1 0 0) " stroke-linecap="round" />
	<rect x="14.73" y="78.58" rx="0" ry="0" width="6.26" height="4.72" style="stroke: none; stroke-width: 1; stroke-dasharray: none; stroke-linecap: butt; stroke-linejoin: miter; stroke-miterlimit: 10; fill: rgb(255,179,0); fill-rule: nonzero; opacity: 1;" transform=" matrix(1 0 0 1 0 0) "/>
	<path d="M 26.187 83.298 H 3.277 c -0.587 0 -1.063 -0.476 -1.063 -1.063 V 81.55 H 27.25 v 0.685 C 27.25 82.822 26.774 83.298 26.187 83.298 z" style="stroke: none; stroke-width: 1; stroke-dasharray: none; stroke-linecap: butt; stroke-linejoin: miter; stroke-miterlimit: 10; fill: rgb(204,143,0); fill-rule: nonzero; opacity: 1;" transform=" matrix(1 0 0 1 0 0) " stroke-linecap="round" />
	<path d="M 8.473 83.298 H 3.277 c -0.587 0 -1.063 -0.476 -1.063 -1.063 V 81.55 h 6.259 V 83.298 z" style="stroke: none; stroke-width: 1; stroke-dasharray: none; stroke-linecap: butt; stroke-linejoin: miter; stroke-miterlimit: 10; fill: rgb(234,165,0); fill-rule: nonzero; opacity: 1;" transform=" matrix(1 0 0 1 0 0) " stroke-linecap="round" />
	<rect x="14.73" y="81.55" rx="0" ry="0" width="6.26" height="1.75" style="stroke: none; stroke-width: 1; stroke-dasharray: none; stroke-linecap: butt; stroke-linejoin: miter; stroke-miterlimit: 10; fill: rgb(234,165,0); fill-rule: nonzero; opacity: 1;" transform=" matrix(1 0 0 1 0 0) "/>
	<path d="M 23.973 78.576 H 1.063 C 0.476 78.576 0 78.101 0 77.514 v -2.596 c 0 -0.587 0.476 -1.063 1.063 -1.063 h 22.91 c 0.587 0 1.063 0.476 1.063 1.063 v 2.596 C 25.035 78.101 24.56 78.576 23.973 78.576 z" style="stroke: none; stroke-width: 1; stroke-dasharray: none; stroke-linecap: butt; stroke-linejoin: miter; stroke-miterlimit: 10; fill: rgb(220,154,0); fill-rule: nonzero; opacity: 1;" transform=" matrix(1 0 0 1 0 0) " stroke-linecap="round" />
	<path d="M 6.259 78.576 H 1.063 C 0.476 78.576 0 78.101 0 77.514 v -2.596 c 0 -0.587 0.476 -1.063 1.063 -1.063 h 5.196 V 78.576 z" style="stroke: none; stroke-width: 1; stroke-dasharray: none; stroke-linecap: butt; stroke-linejoin: miter; stroke-miterlimit: 10; fill: rgb(255,179,0); fill-rule: nonzero; opacity: 1;" transform=" matrix(1 0 0 1 0 0) " stroke-linecap="round" />
	<rect x="12.52" y="73.86" rx="0" ry="0" width="6.26" height="4.72" style="stroke: none; stroke-width: 1; stroke-dasharray: none; stroke-linecap: butt; stroke-linejoin: miter; stroke-miterlimit: 10; fill: rgb(255,179,0); fill-rule: nonzero; opacity: 1;" transform=" matrix(1 0 0 1 0 0) "/>
	<path d="M 23.973 78.576 H 1.063 C 0.476 78.576 0 78.101 0 77.514 v -0.685 h 25.035 v 0.685 C 25.035 78.101 24.56 78.576 23.973 78.576 z" style="stroke: none; stroke-width: 1; stroke-dasharray: none; stroke-linecap: butt; stroke-linejoin: miter; stroke-miterlimit: 10; fill: rgb(204,143,0); fill-rule: nonzero; opacity: 1;" transform=" matrix(1 0 0 1 0 0) " stroke-linecap="round" />
	<path d="M 6.259 78.576 H 1.063 C 0.476 78.576 0 78.101 0 77.514 v -0.685 h 6.259 V 78.576 z" style="stroke: none; stroke-width: 1; stroke-dasharray: none; stroke-linecap: butt; stroke-linejoin: miter; stroke-miterlimit: 10; fill: rgb(234,165,0); fill-rule: nonzero; opacity: 1;" transform=" matrix(1 0 0 1 0 0) " stroke-linecap="round" />
	<rect x="12.52" y="76.83" rx="0" ry="0" width="6.26" height="1.75" style="stroke: none; stroke-width: 1; stroke-dasharray: none; stroke-linecap: butt; stroke-linejoin: miter; stroke-miterlimit: 10; fill: rgb(234,165,0); fill-rule: nonzero; opacity: 1;" transform=" matrix(1 0 0 1 0 0) "/>
	<path d="M 26.187 73.855 H 3.277 c -0.587 0 -1.063 -0.476 -1.063 -1.063 v -2.596 c 0 -0.587 0.476 -1.063 1.063 -1.063 h 22.91 c 0.587 0 1.063 0.476 1.063 1.063 v 2.596 C 27.25 73.379 26.774 73.855 26.187 73.855 z" style="stroke: none; stroke-width: 1; stroke-dasharray: none; stroke-linecap: butt; stroke-linejoin: miter; stroke-miterlimit: 10; fill: rgb(220,154,0); fill-rule: nonzero; opacity: 1;" transform=" matrix(1 0 0 1 0 0) " stroke-linecap="round" />
	<path d="M 8.473 73.855 H 3.277 c -0.587 0 -1.063 -0.476 -1.063 -1.063 v -2.596 c 0 -0.587 0.476 -1.063 1.063 -1.063 h 5.196 V 73.855 z" style="stroke: none; stroke-width: 1; stroke-dasharray: none; stroke-linecap: butt; stroke-linejoin: miter; stroke-miterlimit: 10; fill: rgb(255,179,0); fill-rule: nonzero; opacity: 1;" transform=" matrix(1 0 0 1 0 0) " stroke-linecap="round" />
	<rect x="14.73" y="69.13" rx="0" ry="0" width="6.26" height="4.72" style="stroke: none; stroke-width: 1; stroke-dasharray: none; stroke-linecap: butt; stroke-linejoin: miter; stroke-miterlimit: 10; fill: rgb(255,179,0); fill-rule: nonzero; opacity: 1;" transform=" matrix(1 0 0 1 0 0) "/>
	<path d="M 26.187 73.855 H 3.277 c -0.587 0 -1.063 -0.476 -1.063 -1.063 v -0.685 H 27.25 v 0.685 C 27.25 73.379 26.774 73.855 26.187 73.855 z" style="stroke: none; stroke-width: 1; stroke-dasharray: none; stroke-linecap: butt; stroke-linejoin: miter; stroke-miterlimit: 10; fill: rgb(204,143,0); fill-rule: nonzero; opacity: 1;" transform=" matrix(1 0 0 1 0 0) " stroke-linecap="round" />
	<path d="M 8.473 73.855 H 3.277 c -0.587 0 -1.063 -0.476 -1.063 -1.063 v -0.685 h 6.259 V 73.855 z" style="stroke: none; stroke-width: 1; stroke-dasharray: none; stroke-linecap: butt; stroke-linejoin: miter; stroke-miterlimit: 10; fill: rgb(234,165,0); fill-rule: nonzero; opacity: 1;" transform=" matrix(1 0 0 1 0 0) " stroke-linecap="round" />
	<rect x="14.73" y="72.11" rx="0" ry="0" width="6.26" height="1.75" style="stroke: none; stroke-width: 1; stroke-dasharray: none; stroke-linecap: butt; stroke-linejoin: miter; stroke-miterlimit: 10; fill: rgb(234,165,0); fill-rule: nonzero; opacity: 1;" transform=" matrix(1 0 0 1 0 0) "/>
	<path d="M 25.272 69.133 H 2.362 c -0.587 0 -1.063 -0.476 -1.063 -1.063 v -2.596 c 0 -0.587 0.476 -1.063 1.063 -1.063 h 22.91 c 0.587 0 1.063 0.476 1.063 1.063 v 2.596 C 26.335 68.657 25.859 69.133 25.272 69.133 z" style="stroke: none; stroke-width: 1; stroke-dasharray: none; stroke-linecap: butt; stroke-linejoin: miter; stroke-miterlimit: 10; fill: rgb(220,154,0); fill-rule: nonzero; opacity: 1;" transform=" matrix(1 0 0 1 0 0) " stroke-linecap="round" />
	<path d="M 7.558 69.133 H 2.362 c -0.587 0 -1.063 -0.476 -1.063 -1.063 v -2.596 c 0 -0.587 0.476 -1.063 1.063 -1.063 h 5.196 V 69.133 z" style="stroke: none; stroke-width: 1; stroke-dasharray: none; stroke-linecap: butt; stroke-linejoin: miter; stroke-miterlimit: 10; fill: rgb(255,179,0); fill-rule: nonzero; opacity: 1;" transform=" matrix(1 0 0 1 0 0) " stroke-linecap="round" />
	<rect x="13.82" y="64.41" rx="0" ry="0" width="6.26" height="4.72" style="stroke: none; stroke-width: 1; stroke-dasharray: none; stroke-linecap: butt; stroke-linejoin: miter; stroke-miterlimit: 10; fill: rgb(255,179,0); fill-rule: nonzero; opacity: 1;" transform=" matrix(1 0 0 1 0 0) "/>
	<path d="M 25.272 69.133 H 2.362 c -0.587 0 -1.063 -0.476 -1.063 -1.063 v -0.685 h 25.035 v 0.685 C 26.335 68.657 25.859 69.133 25.272 69.133 z" style="stroke: none; stroke-width: 1; stroke-dasharray: none; stroke-linecap: butt; stroke-linejoin: miter; stroke-miterlimit: 10; fill: rgb(204,143,0); fill-rule: nonzero; opacity: 1;" transform=" matrix(1 0 0 1 0 0) " stroke-linecap="round" />
	<path d="M 7.558 69.133 H 2.362 c -0.587 0 -1.063 -0.476 -1.063 -1.063 v -0.685 h 6.259 V 69.133 z" style="stroke: none; stroke-width: 1; stroke-dasharray: none; stroke-linecap: butt; stroke-linejoin: miter; stroke-miterlimit: 10; fill: rgb(234,165,0); fill-rule: nonzero; opacity: 1;" transform=" matrix(1 0 0 1 0 0) " stroke-linecap="round" />
	<rect x="13.82" y="67.39" rx="0" ry="0" width="6.26" height="1.75" style="stroke: none; stroke-width: 1; stroke-dasharray: none; stroke-linecap: butt; stroke-linejoin: miter; stroke-miterlimit: 10; fill: rgb(234,165,0); fill-rule: nonzero; opacity: 1;" transform=" matrix(1 0 0 1 0 0) "/>
	<path d="M 27.597 64.412 H 4.688 c -0.587 0 -1.063 -0.476 -1.063 -1.063 v -2.596 c 0 -0.587 0.476 -1.063 1.063 -1.063 h 22.91 c 0.587 0 1.063 0.476 1.063 1.063 v 2.596 C 28.66 63.936 28.184 64.412 27.597 64.412 z" style="stroke: none; stroke-width: 1; stroke-dasharray: none; stroke-linecap: butt; stroke-linejoin: miter; stroke-miterlimit: 10; fill: rgb(220,154,0); fill-rule: nonzero; opacity: 1;" transform=" matrix(1 0 0 1 0 0) " stroke-linecap="round" />
	<path d="M 9.884 64.412 H 4.688 c -0.587 0 -1.063 -0.476 -1.063 -1.063 v -2.596 c 0 -0.587 0.476 -1.063 1.063 -1.063 h 5.196 V 64.412 z" style="stroke: none; stroke-width: 1; stroke-dasharray: none; stroke-linecap: butt; stroke-linejoin: miter; stroke-miterlimit: 10; fill: rgb(255,179,0); fill-rule: nonzero; opacity: 1;" transform=" matrix(1 0 0 1 0 0) " stroke-linecap="round" />
	<rect x="16.14" y="59.69" rx="0" ry="0" width="6.26" height="4.72" style="stroke: none; stroke-width: 1; stroke-dasharray: none; stroke-linecap: butt; stroke-linejoin: miter; stroke-miterlimit: 10; fill: rgb(255,179,0); fill-rule: nonzero; opacity: 1;" transform=" matrix(1 0 0 1 0 0) "/>
	<path d="M 27.597 64.412 H 4.688 c -0.587 0 -1.063 -0.476 -1.063 -1.063 v -0.685 H 28.66 v 0.685 C 28.66 63.936 28.184 64.412 27.597 64.412 z" style="stroke: none; stroke-width: 1; stroke-dasharray: none; stroke-linecap: butt; stroke-linejoin: miter; stroke-miterlimit: 10; fill: rgb(204,143,0); fill-rule: nonzero; opacity: 1;" transform=" matrix(1 0 0 1 0 0) " stroke-linecap="round" />
	<path d="M 9.884 64.412 H 4.688 c -0.587 0 -1.063 -0.476 -1.063 -1.063 v -0.685 h 6.259 V 64.412 z" style="stroke: none; stroke-width: 1; stroke-dasharray: none; stroke-linecap: butt; stroke-linejoin: miter; stroke-miterlimit: 10; fill: rgb(234,165,0); fill-rule: nonzero; opacity: 1;" transform=" matrix(1 0 0 1 0 0) " stroke-linecap="round" />
	<rect x="16.14" y="62.66" rx="0" ry="0" width="6.26" height="1.75" style="stroke: none; stroke-width: 1; stroke-dasharray: none; stroke-linecap: butt; stroke-linejoin: miter; stroke-miterlimit: 10; fill: rgb(234,165,0); fill-rule: nonzero; opacity: 1;" transform=" matrix(1 0 0 1 0 0) "/>
	<path d="M 26.503 59.69 H 3.593 c -0.587 0 -1.063 -0.476 -1.063 -1.063 v -2.596 c 0 -0.587 0.476 -1.063 1.063 -1.063 h 22.91 c 0.587 0 1.063 0.476 1.063 1.063 v 2.596 C 27.566 59.214 27.09 59.69 26.503 59.69 z" style="stroke: none; stroke-width: 1; stroke-dasharray: none; stroke-linecap: butt; stroke-linejoin: miter; stroke-miterlimit: 10; fill: rgb(220,154,0); fill-rule: nonzero; opacity: 1;" transform=" matrix(1 0 0 1 0 0) " stroke-linecap="round" />
	<path d="M 8.789 59.69 H 3.593 c -0.587 0 -1.063 -0.476 -1.063 -1.063 v -2.596 c 0 -0.587 0.476 -1.063 1.063 -1.063 h 5.196 V 59.69 z" style="stroke: none; stroke-width: 1; stroke-dasharray: none; stroke-linecap: butt; stroke-linejoin: miter; stroke-miterlimit: 10; fill: rgb(255,179,0); fill-rule: nonzero; opacity: 1;" transform=" matrix(1 0 0 1 0 0) " stroke-linecap="round" />
	<rect x="15.05" y="54.97" rx="0" ry="0" width="6.26" height="4.72" style="stroke: none; stroke-width: 1; stroke-dasharray: none; stroke-linecap: butt; stroke-linejoin: miter; stroke-miterlimit: 10; fill: rgb(255,179,0); fill-rule: nonzero; opacity: 1;" transform=" matrix(1 0 0 1 0 0) "/>
	<path d="M 26.503 59.69 H 3.593 c -0.587 0 -1.063 -0.476 -1.063 -1.063 v -0.685 h 25.035 v 0.685 C 27.566 59.214 27.09 59.69 26.503 59.69 z" style="stroke: none; stroke-width: 1; stroke-dasharray: none; stroke-linecap: butt; stroke-linejoin: miter; stroke-miterlimit: 10; fill: rgb(204,143,0); fill-rule: nonzero; opacity: 1;" transform=" matrix(1 0 0 1 0 0) " stroke-linecap="round" />
	<path d="M 8.789 59.69 H 3.593 c -0.587 0 -1.063 -0.476 -1.063 -1.063 v -0.685 h 6.259 V 59.69 z" style="stroke: none; stroke-width: 1; stroke-dasharray: none; stroke-linecap: butt; stroke-linejoin: miter; stroke-miterlimit: 10; fill: rgb(234,165,0); fill-rule: nonzero; opacity: 1;" transform=" matrix(1 0 0 1 0 0) " stroke-linecap="round" />
	<rect x="15.05" y="57.94" rx="0" ry="0" width="6.26" height="1.75" style="stroke: none; stroke-width: 1; stroke-dasharray: none; stroke-linecap: butt; stroke-linejoin: miter; stroke-miterlimit: 10; fill: rgb(234,165,0); fill-rule: nonzero; opacity: 1;" transform=" matrix(1 0 0 1 0 0) "/>
	<path d="M 28.008 54.968 H 5.098 c -0.587 0 -1.063 -0.476 -1.063 -1.063 V 51.31 c 0 -0.587 0.476 -1.063 1.063 -1.063 h 22.91 c 0.587 0 1.063 0.476 1.063 1.063 v 2.596 C 29.071 54.492 28.595 54.968 28.008 54.968 z" style="stroke: none; stroke-width: 1; stroke-dasharray: none; stroke-linecap: butt; stroke-linejoin: miter; stroke-miterlimit: 10; fill: rgb(220,154,0); fill-rule: nonzero; opacity: 1;" transform=" matrix(1 0 0 1 0 0) " stroke-linecap="round" />
	<path d="M 10.294 54.968 H 5.098 c -0.587 0 -1.063 -0.476 -1.063 -1.063 V 51.31 c 0 -0.587 0.476 -1.063 1.063 -1.063 h 5.196 V 54.968 z" style="stroke: none; stroke-width: 1; stroke-dasharray: none; stroke-linecap: butt; stroke-linejoin: miter; stroke-miterlimit: 10; fill: rgb(255,179,0); fill-rule: nonzero; opacity: 1;" transform=" matrix(1 0 0 1 0 0) " stroke-linecap="round" />
	<rect x="16.55" y="50.25" rx="0" ry="0" width="6.26" height="4.72" style="stroke: none; stroke-width: 1; stroke-dasharray: none; stroke-linecap: butt; stroke-linejoin: miter; stroke-miterlimit: 10; fill: rgb(255,179,0); fill-rule: nonzero; opacity: 1;" transform=" matrix(1 0 0 1 0 0) "/>
	<path d="M 28.008 54.968 H 5.098 c -0.587 0 -1.063 -0.476 -1.063 -1.063 V 53.22 h 25.035 v 0.685 C 29.071 54.492 28.595 54.968 28.008 54.968 z" style="stroke: none; stroke-width: 1; stroke-dasharray: none; stroke-linecap: butt; stroke-linejoin: miter; stroke-miterlimit: 10; fill: rgb(204,143,0); fill-rule: nonzero; opacity: 1;" transform=" matrix(1 0 0 1 0 0) " stroke-linecap="round" />
	<path d="M 10.294 54.968 H 5.098 c -0.587 0 -1.063 -0.476 -1.063 -1.063 V 53.22 h 6.259 V 54.968 z" style="stroke: none; stroke-width: 1; stroke-dasharray: none; stroke-linecap: butt; stroke-linejoin: miter; stroke-miterlimit: 10; fill: rgb(234,165,0); fill-rule: nonzero; opacity: 1;" transform=" matrix(1 0 0 1 0 0) " stroke-linecap="round" />
	<rect x="16.55" y="53.22" rx="0" ry="0" width="6.26" height="1.75" style="stroke: none; stroke-width: 1; stroke-dasharray: none; stroke-linecap: butt; stroke-linejoin: miter; stroke-miterlimit: 10; fill: rgb(234,165,0); fill-rule: nonzero; opacity: 1;" transform=" matrix(1 0 0 1 0 0) "/>
	<path d="M 26.503 50.247 H 3.593 c -0.587 0 -1.063 -0.476 -1.063 -1.063 v -2.596 c 0 -0.587 0.476 -1.063 1.063 -1.063 h 22.91 c 0.587 0 1.063 0.476 1.063 1.063 v 2.596 C 27.566 49.771 27.09 50.247 26.503 50.247 z" style="stroke: none; stroke-width: 1; stroke-dasharray: none; stroke-linecap: butt; stroke-linejoin: miter; stroke-miterlimit: 10; fill: rgb(220,154,0); fill-rule: nonzero; opacity: 1;" transform=" matrix(1 0 0 1 0 0) " stroke-linecap="round" />
	<path d="M 8.789 50.247 H 3.593 c -0.587 0 -1.063 -0.476 -1.063 -1.063 v -2.596 c 0 -0.587 0.476 -1.063 1.063 -1.063 h 5.196 V 50.247 z" style="stroke: none; stroke-width: 1; stroke-dasharray: none; stroke-linecap: butt; stroke-linejoin: miter; stroke-miterlimit: 10; fill: rgb(255,179,0); fill-rule: nonzero; opacity: 1;" transform=" matrix(1 0 0 1 0 0) " stroke-linecap="round" />
	<rect x="15.05" y="45.52" rx="0" ry="0" width="6.26" height="4.72" style="stroke: none; stroke-width: 1; stroke-dasharray: none; stroke-linecap: butt; stroke-linejoin: miter; stroke-miterlimit: 10; fill: rgb(255,179,0); fill-rule: nonzero; opacity: 1;" transform=" matrix(1 0 0 1 0 0) "/>
	<path d="M 26.503 50.247 H 3.593 c -0.587 0 -1.063 -0.476 -1.063 -1.063 v -0.685 h 25.035 v 0.685 C 27.566 49.771 27.09 50.247 26.503 50.247 z" style="stroke: none; stroke-width: 1; stroke-dasharray: none; stroke-linecap: butt; stroke-linejoin: miter; stroke-miterlimit: 10; fill: rgb(204,143,0); fill-rule: nonzero; opacity: 1;" transform=" matrix(1 0 0 1 0 0) " stroke-linecap="round" />
	<path d="M 8.789 50.247 H 3.593 c -0.587 0 -1.063 -0.476 -1.063 -1.063 v -0.685 h 6.259 V 50.247 z" style="stroke: none; stroke-width: 1; stroke-dasharray: none; stroke-linecap: butt; stroke-linejoin: miter; stroke-miterlimit: 10; fill: rgb(234,165,0); fill-rule: nonzero; opacity: 1;" transform=" matrix(1 0 0 1 0 0) " stroke-linecap="round" />
	<rect x="15.05" y="48.5" rx="0" ry="0" width="6.26" height="1.75" style="stroke: none; stroke-width: 1; stroke-dasharray: none; stroke-linecap: butt; stroke-linejoin: miter; stroke-miterlimit: 10; fill: rgb(234,165,0); fill-rule: nonzero; opacity: 1;" transform=" matrix(1 0 0 1 0 0) "/>
	<path d="M 45 45 c -5.36 0 -9.706 4.345 -9.706 9.706 S 39.64 64.412 45 64.412 s 9.706 -4.345 9.706 -9.706 S 50.36 45 45 45 z" style="stroke: none; stroke-width: 1; stroke-dasharray: none; stroke-linecap: butt; stroke-linejoin: miter; stroke-miterlimit: 10; fill: rgb(84,92,86); fill-rule: nonzero; opacity: 1;" transform=" matrix(1 0 0 1 0 0) " stroke-linecap="round" />
	<path d="M 47.262 45.276 c 2.714 2.243 4.443 5.634 4.443 9.43 c 0 3.796 -1.73 7.187 -4.443 9.43 c 4.267 -1.021 7.443 -4.85 7.443 -9.43 C 54.706 50.126 51.53 46.297 47.262 45.276 z" style="stroke: none; stroke-width: 1; stroke-dasharray: none; stroke-linecap: butt; stroke-linejoin: miter; stroke-miterlimit: 10; fill: rgb(72,80,75); fill-rule: nonzero; opacity: 1;" transform=" matrix(1 0 0 1 0 0) " stroke-linecap="round" />
	<path d="M 54.433 29.359 c -6.428 -0.775 -12.786 -0.767 -19.077 -0.002 c -0.876 0.107 -1.65 -0.563 -1.65 -1.446 v 0 c 0 -0.743 0.556 -1.378 1.294 -1.463 c 6.521 -0.75 13.115 -0.758 19.783 0.001 c 0.739 0.084 1.298 0.719 1.298 1.463 v 0.001 C 56.082 28.795 55.309 29.464 54.433 29.359 z" style="stroke: none; stroke-width: 1; stroke-dasharray: none; stroke-linecap: butt; stroke-linejoin: miter; stroke-miterlimit: 10; fill: rgb(255,179,0); fill-rule: nonzero; opacity: 1;" transform=" matrix(1 0 0 1 0 0) " stroke-linecap="round" />
	<path d="M 44.725 50.442 c -0.62 2.048 -2.235 3.663 -4.283 4.283 c -0.278 0.084 -0.278 0.465 0 0.549 c 2.048 0.62 3.663 2.235 4.283 4.283 c 0.084 0.278 0.465 0.278 0.549 0 c 0.62 -2.048 2.235 -3.663 4.283 -4.283 c 0.278 -0.084 0.278 -0.465 0 -0.549 c -2.048 -0.62 -3.663 -2.235 -4.283 -4.283 C 45.19 50.164 44.81 50.164 44.725 50.442 z" style="stroke: none; stroke-width: 1; stroke-dasharray: none; stroke-linecap: butt; stroke-linejoin: miter; stroke-miterlimit: 10; fill: rgb(255,179,0); fill-rule: nonzero; opacity: 1;" transform=" matrix(1 0 0 1 0 0) " stroke-linecap="round" />
</g>
</svg>